<svg width="26" height="23" viewBox="0 0 26 23" fill="none" xmlns="http://www.w3.org/2000/svg">
<path d="M5.29367 11.5001C5.29367 12.8401 5.57367 14.0301 6.13367 15.0701C6.69367 16.1101 7.46367 16.9301 8.44367 17.5301C9.42367 18.1301 10.5637 18.4301 11.8637 18.4301C13.1637 18.4301 14.3037 18.1301 15.2837 17.5301C16.2637 16.9301 17.0237 16.1101 17.5637 15.0701C18.1237 14.0301 18.4037 12.8401 18.4037 11.5001C18.4037 10.1601 18.1337 8.97008 17.5937 7.93008C17.0537 6.89008 16.2937 6.07008 15.3137 5.47008C14.3337 4.87008 13.1837 4.57008 11.8637 4.57008C10.5637 4.57008 9.42367 4.87008 8.44367 5.47008C7.46367 6.07008 6.69367 6.89008 6.13367 7.93008C5.57367 8.97008 5.29367 10.1601 5.29367 11.5001ZM0.763672 11.5001C0.763672 9.90008 1.04367 8.44008 1.60367 7.12008C2.16367 5.78008 2.94367 4.62008 3.94367 3.64008C4.94367 2.66008 6.11367 1.91008 7.45367 1.39008C8.81367 0.850078 10.2837 0.580078 11.8637 0.580078C13.4637 0.580078 14.9337 0.850078 16.2737 1.39008C17.6137 1.91008 18.7837 2.66008 19.7837 3.64008C20.8037 4.62008 21.5837 5.78008 22.1237 7.12008C22.6837 8.44008 22.9637 9.90008 22.9637 11.5001C22.9637 13.0801 22.6837 14.5501 22.1237 15.9101C21.5837 17.2501 20.8137 18.4201 19.8137 19.4201C18.8337 20.4201 17.6637 21.2001 16.3037 21.7601C14.9637 22.3001 13.4837 22.5701 11.8637 22.5701C10.2437 22.5701 8.75367 22.3001 7.39367 21.7601C6.05367 21.2001 4.88367 20.4201 3.88367 19.4201C2.88367 18.4201 2.11367 17.2501 1.57367 15.9101C1.03367 14.5501 0.763672 13.0801 0.763672 11.5001Z" fill="black"/>
<path d="M8.29367 11.5001C8.29367 12.8401 8.57367 14.0301 9.13367 15.0701C9.69367 16.1101 10.4637 16.9301 11.4437 17.5301C12.4237 18.1301 13.5637 18.4301 14.8637 18.4301C16.1637 18.4301 17.3037 18.1301 18.2837 17.5301C19.2637 16.9301 20.0237 16.1101 20.5637 15.0701C21.1237 14.0301 21.4037 12.8401 21.4037 11.5001C21.4037 10.1601 21.1337 8.97008 20.5937 7.93008C20.0537 6.89008 19.2937 6.07008 18.3137 5.47008C17.3337 4.87008 16.1837 4.57008 14.8637 4.57008C13.5637 4.57008 12.4237 4.87008 11.4437 5.47008C10.4637 6.07008 9.69367 6.89008 9.13367 7.93008C8.57367 8.97008 8.29367 10.1601 8.29367 11.5001ZM3.76367 11.5001C3.76367 9.90008 4.04367 8.44008 4.60367 7.12008C5.16367 5.78008 5.94367 4.62008 6.94367 3.64008C7.94367 2.66008 9.11367 1.91008 10.4537 1.39008C11.8137 0.850078 13.2837 0.580078 14.8637 0.580078C16.4637 0.580078 17.9337 0.850078 19.2737 1.39008C20.6137 1.91008 21.7837 2.66008 22.7837 3.64008C23.8037 4.62008 24.5837 5.78008 25.1237 7.12008C25.6837 8.44008 25.9637 9.90008 25.9637 11.5001C25.9637 13.0801 25.6837 14.5501 25.1237 15.9101C24.5837 17.2501 23.8137 18.4201 22.8137 19.4201C21.8337 20.4201 20.6637 21.2001 19.3037 21.7601C17.9637 22.3001 16.4837 22.5701 14.8637 22.5701C13.2437 22.5701 11.7537 22.3001 10.3937 21.7601C9.05367 21.2001 7.88367 20.4201 6.88367 19.4201C5.88367 18.4201 5.11367 17.2501 4.57367 15.9101C4.03367 14.5501 3.76367 13.0801 3.76367 11.5001Z" fill="white"/>
</svg>
